<svg xmlns="http://www.w3.org/2000/svg" viewBox="0 0 500 220" width="500" height="220" font-family="system-ui, -apple-system, Segoe UI, Roboto, Helvetica, Arial, sans-serif" font-size="13" fill="#1a2233">
<title>Timing belt tension</title>
<defs>
<marker id="arr" viewBox="0 0 10 10" refX="9" refY="5" markerWidth="7" markerHeight="7" orient="auto-start-reverse"><path d="M0,0 L10,5 L0,10 z" fill="context-stroke"/></marker>
<marker id="dot" viewBox="0 0 10 10" refX="5" refY="5" markerWidth="5" markerHeight="5"><circle cx="5" cy="5" r="4" fill="context-stroke"/></marker>
<pattern id="hatch" width="7" height="7" patternUnits="userSpaceOnUse" patternTransform="rotate(45)"><line x1="0" y1="0" x2="0" y2="7" stroke="#64748b" stroke-width="1.2"/></pattern>
<pattern id="hatch2" width="7" height="7" patternUnits="userSpaceOnUse" patternTransform="rotate(-45)"><line x1="0" y1="0" x2="0" y2="7" stroke="#0b5fa5" stroke-width="1.2"/></pattern>
<pattern id="dots" width="6" height="6" patternUnits="userSpaceOnUse"><circle cx="3" cy="3" r="1" fill="#64748b"/></pattern>
</defs>
<rect width="500" height="220" fill="#ffffff"/>
<circle cx="90" cy="120" r="40" fill="#f1f5f9" stroke="#1a2233" stroke-width="1.5"/>
<circle cx="130" cy="120" r="2.5" fill="#64748b" stroke="none" stroke-width="1.5"/>
<circle cx="122.36067977499789" cy="143.51141009169893" r="2.5" fill="#64748b" stroke="none" stroke-width="1.5"/>
<circle cx="102.36067977499789" cy="158.04226065180615" r="2.5" fill="#64748b" stroke="none" stroke-width="1.5"/>
<circle cx="77.63932022500211" cy="158.04226065180615" r="2.5" fill="#64748b" stroke="none" stroke-width="1.5"/>
<circle cx="57.63932022500211" cy="143.51141009169893" r="2.5" fill="#64748b" stroke="none" stroke-width="1.5"/>
<circle cx="50" cy="120" r="2.5" fill="#64748b" stroke="none" stroke-width="1.5"/>
<circle cx="57.6393202250021" cy="96.48858990830108" r="2.5" fill="#64748b" stroke="none" stroke-width="1.5"/>
<circle cx="77.6393202250021" cy="81.95773934819385" r="2.5" fill="#64748b" stroke="none" stroke-width="1.5"/>
<circle cx="102.36067977499789" cy="81.95773934819385" r="2.5" fill="#64748b" stroke="none" stroke-width="1.5"/>
<circle cx="122.36067977499789" cy="96.48858990830107" r="2.5" fill="#64748b" stroke="none" stroke-width="1.5"/>
<circle cx="400" cy="120" r="60" fill="#f1f5f9" stroke="#1a2233" stroke-width="1.5"/>
<circle cx="460" cy="120" r="2.5" fill="#64748b" stroke="none" stroke-width="1.5"/>
<circle cx="454.8127274585561" cy="144.404198584548" r="2.5" fill="#64748b" stroke="none" stroke-width="1.5"/>
<circle cx="440.1478363815315" cy="164.58868952864367" r="2.5" fill="#64748b" stroke="none" stroke-width="1.5"/>
<circle cx="418.54101966249686" cy="177.06339097770922" r="2.5" fill="#64748b" stroke="none" stroke-width="1.5"/>
<circle cx="393.7282922039408" cy="179.6713137220964" r="2.5" fill="#64748b" stroke="none" stroke-width="1.5"/>
<circle cx="370" cy="171.96152422706632" r="2.5" fill="#64748b" stroke="none" stroke-width="1.5"/>
<circle cx="351.45898033750314" cy="155.2671151375484" r="2.5" fill="#64748b" stroke="none" stroke-width="1.5"/>
<circle cx="341.31114395597166" cy="132.47470144906555" r="2.5" fill="#64748b" stroke="none" stroke-width="1.5"/>
<circle cx="341.31114395597166" cy="107.52529855093442" r="2.5" fill="#64748b" stroke="none" stroke-width="1.5"/>
<circle cx="351.45898033750314" cy="84.73288486245161" r="2.5" fill="#64748b" stroke="none" stroke-width="1.5"/>
<circle cx="370" cy="68.0384757729337" r="2.5" fill="#64748b" stroke="none" stroke-width="1.5"/>
<circle cx="393.7282922039408" cy="60.32868627790359" r="2.5" fill="#64748b" stroke="none" stroke-width="1.5"/>
<circle cx="418.5410196624968" cy="62.93660902229078" r="2.5" fill="#64748b" stroke="none" stroke-width="1.5"/>
<circle cx="440.1478363815315" cy="75.41131047135633" r="2.5" fill="#64748b" stroke="none" stroke-width="1.5"/>
<circle cx="454.8127274585561" cy="95.59580141545199" r="2.5" fill="#64748b" stroke="none" stroke-width="1.5"/>
<line x1="90" y1="80" x2="400" y2="60" stroke="#1a2233" stroke-width="6" stroke-linecap="round"/>
<line x1="90" y1="160" x2="400" y2="180" stroke="#1a2233" stroke-width="6" stroke-linecap="round"/>
<rect x="336" y="56" width="6" height="130" fill="#64748b" stroke="#1a2233" stroke-width="1.5"/>
<rect x="458" y="56" width="6" height="130" fill="#64748b" stroke="#1a2233" stroke-width="1.5"/>
<text x="400" y="200" font-size="10" text-anchor="middle" fill="#5b6577">flanges</text>
<line x1="245" y1="55" x2="245" y2="70" stroke="#b91c1c" stroke-width="3" stroke-linecap="round" marker-end="url(#arr)"/>
<text x="245" y="44" font-size="10" text-anchor="middle" fill="#b91c1c">deflection force per the belt chart (or a sonic tension meter)</text>
<text x="20" y="208" font-size="10" text-anchor="start" fill="#5b6577">too loose = tooth jump; too tight = bearing load, whine</text>
</svg>