<svg xmlns="http://www.w3.org/2000/svg" viewBox="0 0 500 270" width="500" height="270" font-family="system-ui, -apple-system, Segoe UI, Roboto, Helvetica, Arial, sans-serif" font-size="13" fill="#1a2233">
<title>Lathe parts</title>
<defs>
<marker id="arr" viewBox="0 0 10 10" refX="9" refY="5" markerWidth="7" markerHeight="7" orient="auto-start-reverse"><path d="M0,0 L10,5 L0,10 z" fill="context-stroke"/></marker>
<marker id="dot" viewBox="0 0 10 10" refX="5" refY="5" markerWidth="5" markerHeight="5"><circle cx="5" cy="5" r="4" fill="context-stroke"/></marker>
<pattern id="hatch" width="7" height="7" patternUnits="userSpaceOnUse" patternTransform="rotate(45)"><line x1="0" y1="0" x2="0" y2="7" stroke="#64748b" stroke-width="1.2"/></pattern>
<pattern id="hatch2" width="7" height="7" patternUnits="userSpaceOnUse" patternTransform="rotate(-45)"><line x1="0" y1="0" x2="0" y2="7" stroke="#0b5fa5" stroke-width="1.2"/></pattern>
<pattern id="dots" width="6" height="6" patternUnits="userSpaceOnUse"><circle cx="3" cy="3" r="1" fill="#64748b"/></pattern>
</defs>
<rect width="500" height="270" fill="#ffffff"/>
<rect x="30" y="160" width="440" height="30" fill="#f1f5f9" stroke="#1a2233" stroke-width="1.5"/>
<rect x="30" y="60" width="110" height="100" fill="#64748b" stroke="#1a2233" stroke-width="1.5" rx="6"/>
<circle cx="150" cy="110" r="34" fill="#f1f5f9" stroke="#1a2233" stroke-width="1.5"/>
<circle cx="150" cy="110" r="8" fill="#64748b" stroke="#1a2233" stroke-width="1.5"/>
<rect x="184" y="100" width="140" height="20" fill="#cbd5e1" stroke="#1a2233" stroke-width="1.5"/>
<rect x="250" y="130" width="90" height="30" fill="#f1f5f9" stroke="#1a2233" stroke-width="1.5"/>
<rect x="270" y="118" width="30" height="14" fill="#f1f5f9" stroke="#1a2233" stroke-width="1.5"/>
<rect x="276" y="96" width="14" height="24" fill="#1a2233" stroke="#1a2233" stroke-width="1.5"/>
<rect x="390" y="90" width="70" height="70" fill="#f1f5f9" stroke="#1a2233" stroke-width="1.5" rx="4"/>
<path d="M390,110 L360,110 L352,110 Z" fill="#ffffff" stroke="#1a2233" stroke-width="1.5" stroke-linejoin="round" stroke-linecap="round"/>
<rect x="340" y="106" width="50" height="8" fill="#64748b" stroke="#1a2233" stroke-width="1.5"/>
<line x1="30" y1="200" x2="470" y2="200" stroke="#64748b" stroke-width="3" stroke-linecap="round"/>
<line x1="30" y1="212" x2="470" y2="212" stroke="#94a3b8" stroke-width="3" stroke-linecap="round"/>
<circle cx="85" cy="50" r="8" fill="#0b5fa5" stroke="#ffffff" stroke-width="1.5"/><text x="85" y="54" font-size="11" text-anchor="middle" font-weight="700" fill="#fff">1</text>
<circle cx="150" cy="66" r="8" fill="#0b5fa5" stroke="#ffffff" stroke-width="1.5"/><text x="150" y="70" font-size="11" text-anchor="middle" font-weight="700" fill="#fff">2</text>
<circle cx="283" cy="86" r="8" fill="#0b5fa5" stroke="#ffffff" stroke-width="1.5"/><text x="283" y="90" font-size="11" text-anchor="middle" font-weight="700" fill="#fff">3</text>
<circle cx="295" cy="175" r="8" fill="#0b5fa5" stroke="#ffffff" stroke-width="1.5"/><text x="295" y="179" font-size="11" text-anchor="middle" font-weight="700" fill="#fff">4</text>
<circle cx="425" cy="80" r="8" fill="#0b5fa5" stroke="#ffffff" stroke-width="1.5"/><text x="425" y="84" font-size="11" text-anchor="middle" font-weight="700" fill="#fff">5</text>
<circle cx="250" cy="210" r="8" fill="#0b5fa5" stroke="#ffffff" stroke-width="1.5"/><text x="250" y="214" font-size="11" text-anchor="middle" font-weight="700" fill="#fff">6</text>
<circle cx="250" cy="222" r="8" fill="#0b5fa5" stroke="#ffffff" stroke-width="1.5"/><text x="250" y="226" font-size="11" text-anchor="middle" font-weight="700" fill="#fff">7</text>

<text x="20" y="240" font-size="9.5" text-anchor="start" fill="#5b6577"><tspan x="20" dy="0">1 headstock · 2 chuck · 3 tool post on compound and cross slide · 4 carriage</tspan><tspan x="20" dy="11.875">5 tailstock · 6 lead screw · 7 feed rod</tspan></text>
</svg>