<svg xmlns="http://www.w3.org/2000/svg" viewBox="0 0 500 260" width="500" height="260" font-family="system-ui, -apple-system, Segoe UI, Roboto, Helvetica, Arial, sans-serif" font-size="13" fill="#1a2233">
<title>Flowmeter reading</title>
<defs>
<marker id="arr" viewBox="0 0 10 10" refX="9" refY="5" markerWidth="7" markerHeight="7" orient="auto-start-reverse"><path d="M0,0 L10,5 L0,10 z" fill="context-stroke"/></marker>
<marker id="dot" viewBox="0 0 10 10" refX="5" refY="5" markerWidth="5" markerHeight="5"><circle cx="5" cy="5" r="4" fill="context-stroke"/></marker>
<pattern id="hatch" width="7" height="7" patternUnits="userSpaceOnUse" patternTransform="rotate(45)"><line x1="0" y1="0" x2="0" y2="7" stroke="#64748b" stroke-width="1.2"/></pattern>
<pattern id="hatch2" width="7" height="7" patternUnits="userSpaceOnUse" patternTransform="rotate(-45)"><line x1="0" y1="0" x2="0" y2="7" stroke="#0b5fa5" stroke-width="1.2"/></pattern>
<pattern id="dots" width="6" height="6" patternUnits="userSpaceOnUse"><circle cx="3" cy="3" r="1" fill="#64748b"/></pattern>
</defs>
<rect width="500" height="260" fill="#ffffff"/>
<text x="120" y="24" font-size="13" text-anchor="middle" font-weight="700" fill="#1a2233">Flowmeter (cfh)</text>
<rect x="90" y="40" width="60" height="170" fill="#f1f5f9" stroke="#1a2233" stroke-width="1.5" rx="6"/>
<rect x="105" y="50" width="30" height="150" fill="#ffffff" stroke="#1a2233" stroke-width="1.5"/>
<line x1="135" y1="195" x2="145" y2="195" stroke="#1a2233" stroke-width="1" stroke-linecap="round"/>
<text x="150" y="199" font-size="10" text-anchor="start" fill="#1a2233">0</text>
<line x1="135" y1="171" x2="145" y2="171" stroke="#1a2233" stroke-width="1" stroke-linecap="round"/>
<text x="150" y="175" font-size="10" text-anchor="start" fill="#1a2233">10</text>
<line x1="135" y1="147" x2="145" y2="147" stroke="#1a2233" stroke-width="1" stroke-linecap="round"/>
<text x="150" y="151" font-size="10" text-anchor="start" fill="#1a2233">20</text>
<line x1="135" y1="123" x2="145" y2="123" stroke="#1a2233" stroke-width="1" stroke-linecap="round"/>
<text x="150" y="127" font-size="10" text-anchor="start" fill="#1a2233">30</text>
<line x1="135" y1="99" x2="145" y2="99" stroke="#1a2233" stroke-width="1" stroke-linecap="round"/>
<text x="150" y="103" font-size="10" text-anchor="start" fill="#1a2233">40</text>
<line x1="135" y1="75" x2="145" y2="75" stroke="#1a2233" stroke-width="1" stroke-linecap="round"/>
<text x="150" y="79" font-size="10" text-anchor="start" fill="#1a2233">50</text>
<line x1="135" y1="51" x2="145" y2="51" stroke="#1a2233" stroke-width="1" stroke-linecap="round"/>
<text x="150" y="55" font-size="10" text-anchor="start" fill="#1a2233">60</text>
<circle cx="120" cy="142.2" r="8" fill="#64748b" stroke="#1a2233" stroke-width="1.5"/>
<line x1="60" y1="142.2" x2="112" y2="142.2" stroke="#b91c1c" stroke-width="1" stroke-dasharray="3 2" stroke-linecap="round"/>
<text x="58" y="146.2" font-size="11" text-anchor="end" fill="#b91c1c"><tspan x="58" dy="0">read here</tspan><tspan x="58" dy="13.75">= 22 cfh</tspan></text>
<text x="120" y="232" font-size="10.5" text-anchor="middle" fill="#5b6577">gas must be flowing (trigger or purge)</text>
<text x="360" y="24" font-size="13" text-anchor="middle" font-weight="700" fill="#1a2233">Regulator (psi): not a flow reading</text>
<circle cx="360" cy="120" r="60" fill="#f1f5f9" stroke="#1a2233" stroke-width="1.5"/>
<circle cx="360" cy="120" r="50" fill="#ffffff" stroke="#1a2233" stroke-width="1.5"/>
<line x1="326.29404450276496" y1="91.71734517379227" x2="321.6977778440511" y2="87.86061951567302" stroke="#1a2233" stroke-width="1" stroke-linecap="round"/>
<text x="332.4224000477168" y="100.85964605128459" font-size="9" text-anchor="middle" fill="#1a2233">0</text>
<line x1="352.3594801826551" y1="76.66845886746285" x2="351.3175911166535" y2="70.7596123493896" stroke="#1a2233" stroke-width="1" stroke-linecap="round"/>
<text x="353.7486656039905" y="88.54692089156052" font-size="9" text-anchor="middle" fill="#1a2233">10</text>
<line x1="382" y1="81.89488223348471" x2="385" y2="76.69872981077808" stroke="#1a2233" stroke-width="1" stroke-linecap="round"/>
<text x="378" y="92.82308546376021" font-size="9" text-anchor="middle" fill="#1a2233">20</text>
<line x1="401.34647531457995" y1="104.95111369367058" x2="406.98463103929544" y2="102.89899283371656" stroke="#1a2233" stroke-width="1" stroke-linecap="round"/>
<text x="393.8289343482927" y="111.68727484027593" font-size="9" text-anchor="middle" fill="#1a2233">30</text>
<line x1="401.34647531457995" y1="135.04888630632942" x2="406.98463103929544" y2="137.10100716628344" stroke="#1a2233" stroke-width="1" stroke-linecap="round"/>
<text x="393.8289343482927" y="136.31272515972407" font-size="9" text-anchor="middle" fill="#1a2233">40</text>
<line x1="382" y1="158.1051177665153" x2="385" y2="163.30127018922192" stroke="#1a2233" stroke-width="1" stroke-linecap="round"/>
<text x="378" y="155.1769145362398" font-size="9" text-anchor="middle" fill="#1a2233">50</text>
<line x1="360" y1="120" x2="380" y2="85.35898384862246" stroke="#b91c1c" stroke-width="2" stroke-linecap="round"/>
<circle cx="360" cy="120" r="4" fill="#1a2233" stroke="#1a2233" stroke-width="1.5"/>
<text x="360" y="200" font-size="10.5" text-anchor="middle" fill="#5b6577"><tspan x="360" dy="0">a "flow gauge" regulator is calibrated in</tspan><tspan x="360" dy="13.125">cfh for one orifice: fine for MIG;</tspan><tspan x="360" dy="13.125">use a flowmeter for TIG</tspan></text>
<text x="250" y="252" font-size="12" text-anchor="middle" fill="#5b6577" font-style="italic">MIG 20-25 cfh · flux-core 35-50 · TIG 10-20 (15-25 with a gas lens)</text>
</svg>