<svg xmlns="http://www.w3.org/2000/svg" viewBox="0 0 500 290" width="500" height="290" font-family="system-ui, -apple-system, Segoe UI, Roboto, Helvetica, Arial, sans-serif" font-size="13" fill="#1a2233">
<title>Accumulator and hi-lo circuits</title>
<defs>
<marker id="arr" viewBox="0 0 10 10" refX="9" refY="5" markerWidth="7" markerHeight="7" orient="auto-start-reverse"><path d="M0,0 L10,5 L0,10 z" fill="context-stroke"/></marker>
<marker id="dot" viewBox="0 0 10 10" refX="5" refY="5" markerWidth="5" markerHeight="5"><circle cx="5" cy="5" r="4" fill="context-stroke"/></marker>
<pattern id="hatch" width="7" height="7" patternUnits="userSpaceOnUse" patternTransform="rotate(45)"><line x1="0" y1="0" x2="0" y2="7" stroke="#64748b" stroke-width="1.2"/></pattern>
<pattern id="hatch2" width="7" height="7" patternUnits="userSpaceOnUse" patternTransform="rotate(-45)"><line x1="0" y1="0" x2="0" y2="7" stroke="#0b5fa5" stroke-width="1.2"/></pattern>
<pattern id="dots" width="6" height="6" patternUnits="userSpaceOnUse"><circle cx="3" cy="3" r="1" fill="#64748b"/></pattern>
</defs>
<rect width="500" height="290" fill="#ffffff"/>
<text x="125" y="20" font-size="11.5" text-anchor="middle" font-weight="700" fill="#1a2233">Accumulator circuit</text>
<text x="375" y="20" font-size="11.5" text-anchor="middle" font-weight="700" fill="#1a2233">Hi-lo two-pump circuit</text>
<circle cx="60" cy="214" r="13" fill="#ffffff" stroke="#1a2233" stroke-width="1.5"/>
<path d="M60,201 L66,212 L54,212 Z" fill="#1a2233" stroke="#1a2233" stroke-width="1.2" stroke-linejoin="round" stroke-linecap="round"/>
<circle cx="30" cy="214" r="8" fill="#ffffff" stroke="#1a2233" stroke-width="1.5"/>
<text x="30" y="218" font-size="11" text-anchor="middle" font-weight="700" fill="#1a2233">M</text>
<line x1="38" y1="214" x2="47" y2="214" stroke="#1a2233" stroke-width="2" stroke-linecap="round"/>
<line x1="60" y1="227" x2="60" y2="238" stroke="#1a2233" stroke-width="1.6" stroke-linecap="round"/>
<line x1="60" y1="238" x2="60" y2="244" stroke="#1a2233" stroke-width="1.6" stroke-linecap="round"/>
<path d="M52,238 L52,247 L68,247 L68,238" fill="none" stroke="#1a2233" stroke-width="1.5" stroke-linejoin="round" stroke-linecap="round"/>
<line x1="60" y1="201" x2="60" y2="170" stroke="#1a2233" stroke-width="1.6" stroke-linecap="round"/>
<g transform="translate(60,160) rotate(0)"><circle cx="0" cy="0" r="3.5" fill="#ffffff" stroke="#1a2233" stroke-width="1.5"/>
<path d="M-7,7 L0,-1.4000000000000001 L7,7" fill="none" stroke="#1a2233" stroke-width="1.6" stroke-linejoin="round" stroke-linecap="round"/></g>
<line x1="60" y1="152" x2="60" y2="110" stroke="#1a2233" stroke-width="1.6" stroke-linecap="round"/>
<circle cx="60" cy="130" r="2.6" fill="#1a2233" stroke="none" stroke-width="1.5"/>
<line x1="60" y1="130" x2="130" y2="130" stroke="#1a2233" stroke-width="1.6" stroke-linecap="round"/>
<rect x="118" y="119" width="22" height="22" fill="#ffffff" stroke="#1a2233" stroke-width="1.5"/>
<line x1="129" y1="141" x2="129" y2="149" stroke="#1a2233" stroke-width="1.5" stroke-linecap="round"/>
<line x1="129" y1="119" x2="129" y2="111" stroke="#1a2233" stroke-width="1.5" stroke-linecap="round"/>
<line x1="124" y1="133" x2="134" y2="133" stroke="#1a2233" stroke-width="2" stroke-linecap="round"/>
<line x1="124" y1="127" x2="134" y2="127" stroke="#1a2233" stroke-width="2" stroke-linecap="round"/>
<rect x="140" y="119" width="22" height="22" fill="#ffffff" stroke="#1a2233" stroke-width="1.5"/>
<line x1="151" y1="141" x2="151" y2="149" stroke="#1a2233" stroke-width="1.5" stroke-linecap="round"/>
<line x1="151" y1="119" x2="151" y2="111" stroke="#1a2233" stroke-width="1.5" stroke-linecap="round"/>
<line x1="151" y1="141" x2="151" y2="119" stroke="#1a2233" stroke-width="1.5" stroke-linecap="round" marker-end="url(#arr)"/>
<rect x="139" y="109" width="24" height="9" fill="#ffffff" stroke="none" stroke-width="1.5"/>
<rect x="139" y="142" width="24" height="9" fill="#ffffff" stroke="none" stroke-width="1.5"/>
<line x1="116" y1="130" x2="110" y2="130" stroke="#1a2233" stroke-width="1.5" stroke-linecap="round"/>
<line x1="110" y1="130" x2="100" y2="116" stroke="#1a2233" stroke-width="2" stroke-linecap="round"/>
<circle cx="110" cy="130" r="2.2" fill="#1a2233" stroke="#1a2233" stroke-width="1.5"/>
<path d="M164,122 l10,0 l0,16 l-10,0" fill="none" stroke="#1a2233" stroke-width="1.2" stroke-linejoin="round" stroke-linecap="round"/>
<path d="M167,138 l0,-4 l4,0 l0,4" fill="none" stroke="#1a2233" stroke-width="1.2" stroke-linejoin="round" stroke-linecap="round"/>
<line x1="140" y1="119" x2="140" y2="100" stroke="#1a2233" stroke-width="1.6" stroke-linecap="round"/>
<path d="M130,88 L130,66 a10,10 0 0 1 20,0 L150,88 a10,8 0 0 1 -20,0 Z" fill="none" stroke="#1a2233" stroke-width="1.5" stroke-linejoin="round" stroke-linecap="round"/>
<line x1="140" y1="96" x2="140" y2="104" stroke="#1a2233" stroke-width="1.5" stroke-linecap="round"/>
<line x1="130" y1="76" x2="150" y2="76" stroke="#1a2233" stroke-width="1.2" stroke-linecap="round"/>
<path d="M136,70 L144,70 L140,64 Z" fill="#1a2233" stroke="#1a2233" stroke-width="1.5" stroke-linejoin="round" stroke-linecap="round"/>
<text x="166" y="86" font-size="8.5" text-anchor="start" fill="#1a2233">isolate</text>
<text x="166" y="120" font-size="8.5" text-anchor="start" fill="#1a2233">bleed-down</text>
<line x1="140" y1="141" x2="140" y2="160" stroke="#1a2233" stroke-width="1.6" stroke-linecap="round"/>
<path d="M132,164 q8,8 0,16" fill="none" stroke="#1a2233" stroke-width="1.5" stroke-linejoin="round" stroke-linecap="round"/>
<path d="M148,164 q-8,8 0,16" fill="none" stroke="#1a2233" stroke-width="1.5" stroke-linejoin="round" stroke-linecap="round"/>
<line x1="129" y1="183" x2="151" y2="161" stroke="#1a2233" stroke-width="1" stroke-linecap="round" marker-end="url(#arr)"/>
<line x1="140" y1="184" x2="140" y2="200" stroke="#1a2233" stroke-width="1.6" stroke-linecap="round"/>
<line x1="140" y1="200" x2="140" y2="205" stroke="#1a2233" stroke-width="1.6" stroke-linecap="round"/>
<path d="M133,200 L133,208 L147,208 L147,200" fill="none" stroke="#1a2233" stroke-width="1.5" stroke-linejoin="round" stroke-linecap="round"/>
<circle cx="96" cy="100" r="8" fill="#ffffff" stroke="#1a2233" stroke-width="1.5"/>
<line x1="93" y1="103" x2="100" y2="96" stroke="#1a2233" stroke-width="1.5" stroke-linecap="round"/>
<line x1="96" y1="108" x2="96" y2="130" stroke="#1a2233" stroke-width="1" stroke-linecap="round"/>
<line x1="60" y1="110" x2="60" y2="60" stroke="#1a2233" stroke-width="1.6" stroke-linecap="round" marker-end="url(#arr)"/>
<text x="64" y="56" font-size="9" text-anchor="start" fill="#1a2233">to system</text>
<rect x="9" y="159" width="22" height="22" fill="#ffffff" stroke="#1a2233" stroke-width="1.5"/>
<line x1="14" y1="178" x2="14" y2="162" stroke="#1a2233" stroke-width="1.5" stroke-linecap="round" marker-end="url(#arr)"/>
<line x1="20" y1="181" x2="20" y2="189" stroke="#1a2233" stroke-width="1.5" stroke-linecap="round"/>
<line x1="20" y1="159" x2="20" y2="151" stroke="#1a2233" stroke-width="1.5" stroke-linecap="round"/>
<path d="M31,170 l6,0 l0,-17 l4,-4 l-8,-4 l8,-4 l-8,-4 l4,-4" fill="none" stroke="#1a2233" stroke-width="1.1" stroke-linejoin="round" stroke-linecap="round"/>
<line x1="33" y1="139" x2="45" y2="127" stroke="#1a2233" stroke-width="1" stroke-linecap="round" marker-end="url(#arr)"/>
<line x1="20" y1="187" x2="3" y2="187" stroke="#1a2233" stroke-width="1.2" stroke-dasharray="9 4" stroke-linecap="round"/>
<line x1="3" y1="187" x2="3" y2="170" stroke="#1a2233" stroke-width="1.2" stroke-dasharray="9 4" stroke-linecap="round"/>
<line x1="3" y1="170" x2="9" y2="170" stroke="#1a2233" stroke-width="1.2" stroke-dasharray="9 4" stroke-linecap="round"/>
<line x1="20" y1="187" x2="20" y2="196" stroke="#1a2233" stroke-width="1.6" stroke-linecap="round"/>
<line x1="20" y1="196" x2="20" y2="201" stroke="#1a2233" stroke-width="1.6" stroke-linecap="round"/>
<path d="M13,196 L13,204 L27,204 L27,196" fill="none" stroke="#1a2233" stroke-width="1.5" stroke-linejoin="round" stroke-linecap="round"/>
<line x1="60" y1="140" x2="20" y2="140" stroke="#1a2233" stroke-width="1.6" stroke-linecap="round"/>
<line x1="20" y1="140" x2="20" y2="159" stroke="#1a2233" stroke-width="1.6" stroke-linecap="round"/>
<circle cx="60" cy="140" r="2.6" fill="#1a2233" stroke="none" stroke-width="1.5"/>
<text x="125" y="264" font-size="9.5" text-anchor="middle" fill="#5b6577">bleed to zero on the gauge before opening</text>
<circle cx="300" cy="220" r="9" fill="#ffffff" stroke="#1a2233" stroke-width="1.5"/>
<text x="300" y="224" font-size="11" text-anchor="middle" font-weight="700" fill="#1a2233">M</text>
<line x1="309" y1="220" x2="320" y2="220" stroke="#1a2233" stroke-width="2" stroke-linecap="round"/>
<circle cx="334" cy="220" r="13" fill="#ffffff" stroke="#1a2233" stroke-width="1.5"/>
<path d="M334,207 L340,218 L328,218 Z" fill="#1a2233" stroke="#1a2233" stroke-width="1.2" stroke-linejoin="round" stroke-linecap="round"/>
<line x1="347" y1="220" x2="356" y2="220" stroke="#1a2233" stroke-width="2" stroke-linecap="round"/>
<circle cx="370" cy="220" r="10" fill="#ffffff" stroke="#1a2233" stroke-width="1.5"/>
<path d="M370,210 L376,221 L364,221 Z" fill="#1a2233" stroke="#1a2233" stroke-width="1.2" stroke-linejoin="round" stroke-linecap="round"/>
<line x1="334" y1="233" x2="334" y2="244" stroke="#1a2233" stroke-width="1.6" stroke-linecap="round"/>
<line x1="334" y1="244" x2="334" y2="249" stroke="#1a2233" stroke-width="1.6" stroke-linecap="round"/>
<path d="M327,244 L327,252 L341,252 L341,244" fill="none" stroke="#1a2233" stroke-width="1.5" stroke-linejoin="round" stroke-linecap="round"/>
<line x1="370" y1="230" x2="370" y2="244" stroke="#1a2233" stroke-width="1.6" stroke-linecap="round"/>
<line x1="370" y1="244" x2="370" y2="248" stroke="#1a2233" stroke-width="1.6" stroke-linecap="round"/>
<path d="M364,244 L364,251 L376,251 L376,244" fill="none" stroke="#1a2233" stroke-width="1.5" stroke-linejoin="round" stroke-linecap="round"/>
<text x="334" y="264" font-size="8.5" text-anchor="middle" fill="#1a2233">high volume</text>
<text x="384" y="236" font-size="8.5" text-anchor="start" fill="#1a2233">high pressure</text>
<line x1="334" y1="207" x2="334" y2="176" stroke="#1a2233" stroke-width="1.6" stroke-linecap="round"/>
<g transform="translate(334,166) rotate(0)"><circle cx="0" cy="0" r="3" fill="#ffffff" stroke="#1a2233" stroke-width="1.5"/>
<path d="M-6,6 L0,-1.2000000000000002 L6,6" fill="none" stroke="#1a2233" stroke-width="1.6" stroke-linejoin="round" stroke-linecap="round"/></g>
<line x1="334" y1="160" x2="334" y2="120" stroke="#1a2233" stroke-width="1.6" stroke-linecap="round"/>
<line x1="370" y1="210" x2="370" y2="120" stroke="#1a2233" stroke-width="1.6" stroke-linecap="round"/>
<line x1="334" y1="120" x2="370" y2="120" stroke="#1a2233" stroke-width="1.6" stroke-linecap="round"/>
<circle cx="370" cy="120" r="2.6" fill="#1a2233" stroke="none" stroke-width="1.5"/>
<line x1="370" y1="120" x2="370" y2="70" stroke="#1a2233" stroke-width="1.6" stroke-linecap="round" marker-end="url(#arr)"/>
<text x="376" y="66" font-size="9" text-anchor="start" fill="#1a2233">to system</text>
<rect x="289" y="165" width="22" height="22" fill="#ffffff" stroke="#1a2233" stroke-width="1.5"/>
<line x1="294" y1="184" x2="294" y2="168" stroke="#1a2233" stroke-width="1.5" stroke-linecap="round" marker-end="url(#arr)"/>
<line x1="300" y1="187" x2="300" y2="195" stroke="#1a2233" stroke-width="1.5" stroke-linecap="round"/>
<line x1="300" y1="165" x2="300" y2="157" stroke="#1a2233" stroke-width="1.5" stroke-linecap="round"/>
<path d="M311,176 l6,0 l0,-17 l4,-4 l-8,-4 l8,-4 l-8,-4 l4,-4" fill="none" stroke="#1a2233" stroke-width="1.1" stroke-linejoin="round" stroke-linecap="round"/>
<line x1="313" y1="145" x2="325" y2="133" stroke="#1a2233" stroke-width="1" stroke-linecap="round" marker-end="url(#arr)"/>
<line x1="300" y1="193" x2="283" y2="193" stroke="#1a2233" stroke-width="1.2" stroke-dasharray="9 4" stroke-linecap="round"/>
<line x1="283" y1="193" x2="283" y2="176" stroke="#1a2233" stroke-width="1.2" stroke-dasharray="9 4" stroke-linecap="round"/>
<line x1="283" y1="176" x2="289" y2="176" stroke="#1a2233" stroke-width="1.2" stroke-dasharray="9 4" stroke-linecap="round"/>
<line x1="283" y1="176" x2="265" y2="176" stroke="#1a2233" stroke-width="1.2" stroke-dasharray="9 4" stroke-linecap="round"/>
<text x="263" y="179" font-size="8" text-anchor="end" fill="#1a2233">remote</text>
<line x1="334" y1="190" x2="300" y2="190" stroke="#1a2233" stroke-width="1.6" stroke-linecap="round"/>
<circle cx="334" cy="190" r="2.6" fill="#1a2233" stroke="none" stroke-width="1.5"/>
<line x1="300" y1="190" x2="300" y2="187" stroke="#1a2233" stroke-width="1.6" stroke-linecap="round"/>
<line x1="300" y1="165" x2="300" y2="152" stroke="#1a2233" stroke-width="1.6" stroke-linecap="round"/>
<line x1="300" y1="152" x2="300" y2="156" stroke="#1a2233" stroke-width="1.6" stroke-linecap="round"/>
<path d="M294,152 L294,159 L306,159 L306,152" fill="none" stroke="#1a2233" stroke-width="1.5" stroke-linejoin="round" stroke-linecap="round"/>
<line x1="300" y1="176" x2="262" y2="176" stroke="#1a2233" stroke-width="1.2" stroke-dasharray="9 4" stroke-linecap="round"/>
<line x1="262" y1="176" x2="262" y2="96" stroke="#1a2233" stroke-width="1.2" stroke-dasharray="9 4" stroke-linecap="round"/>
<line x1="262" y1="96" x2="370" y2="96" stroke="#1a2233" stroke-width="1.2" stroke-dasharray="9 4" stroke-linecap="round"/>
<circle cx="370" cy="96" r="2.6" fill="#1a2233" stroke="none" stroke-width="1.5"/>
<rect x="409" y="139" width="22" height="22" fill="#ffffff" stroke="#1a2233" stroke-width="1.5"/>
<line x1="414" y1="158" x2="414" y2="142" stroke="#1a2233" stroke-width="1.5" stroke-linecap="round" marker-end="url(#arr)"/>
<line x1="420" y1="161" x2="420" y2="169" stroke="#1a2233" stroke-width="1.5" stroke-linecap="round"/>
<line x1="420" y1="139" x2="420" y2="131" stroke="#1a2233" stroke-width="1.5" stroke-linecap="round"/>
<path d="M431,150 l6,0 l0,-17 l4,-4 l-8,-4 l8,-4 l-8,-4 l4,-4" fill="none" stroke="#1a2233" stroke-width="1.1" stroke-linejoin="round" stroke-linecap="round"/>
<line x1="433" y1="119" x2="445" y2="107" stroke="#1a2233" stroke-width="1" stroke-linecap="round" marker-end="url(#arr)"/>
<line x1="420" y1="167" x2="403" y2="167" stroke="#1a2233" stroke-width="1.2" stroke-dasharray="9 4" stroke-linecap="round"/>
<line x1="403" y1="167" x2="403" y2="150" stroke="#1a2233" stroke-width="1.2" stroke-dasharray="9 4" stroke-linecap="round"/>
<line x1="403" y1="150" x2="409" y2="150" stroke="#1a2233" stroke-width="1.2" stroke-dasharray="9 4" stroke-linecap="round"/>
<line x1="370" y1="140" x2="420" y2="140" stroke="#1a2233" stroke-width="1.6" stroke-linecap="round"/>
<circle cx="370" cy="140" r="2.6" fill="#1a2233" stroke="none" stroke-width="1.5"/>
<line x1="420" y1="140" x2="420" y2="161" stroke="#1a2233" stroke-width="1.6" stroke-linecap="round"/>
<line x1="420" y1="139" x2="420" y2="128" stroke="#1a2233" stroke-width="1.6" stroke-linecap="round"/>
<line x1="420" y1="128" x2="420" y2="132" stroke="#1a2233" stroke-width="1.6" stroke-linecap="round"/>
<path d="M414,128 L414,135 L426,135 L426,128" fill="none" stroke="#1a2233" stroke-width="1.5" stroke-linejoin="round" stroke-linecap="round"/>
<text x="440" y="176" font-size="8.5" text-anchor="start" fill="#1a2233">relief</text>
<text x="256" y="148" font-size="8.5" text-anchor="end" fill="#1a2233"><tspan x="256" dy="0">unloading valve:</tspan><tspan x="256" dy="10.625">dumps the big pump</tspan><tspan x="256" dy="10.625">above its setting</tspan></text>
<text x="250" y="282" font-size="12" text-anchor="middle" fill="#5b6577" font-style="italic">Hi-lo: fast approach on both pumps, full pressure on the small one alone.</text>
</svg>