<svg xmlns="http://www.w3.org/2000/svg" viewBox="0 0 500 348" width="500" height="348" font-family="system-ui, -apple-system, Segoe UI, Roboto, Helvetica, Arial, sans-serif" font-size="13" fill="#1a2233">
<title>Process switches</title>
<defs>
<marker id="arr" viewBox="0 0 10 10" refX="9" refY="5" markerWidth="7" markerHeight="7" orient="auto-start-reverse"><path d="M0,0 L10,5 L0,10 z" fill="context-stroke"/></marker>
<marker id="dot" viewBox="0 0 10 10" refX="5" refY="5" markerWidth="5" markerHeight="5"><circle cx="5" cy="5" r="4" fill="context-stroke"/></marker>
<pattern id="hatch" width="7" height="7" patternUnits="userSpaceOnUse" patternTransform="rotate(45)"><line x1="0" y1="0" x2="0" y2="7" stroke="#64748b" stroke-width="1.2"/></pattern>
<pattern id="hatch2" width="7" height="7" patternUnits="userSpaceOnUse" patternTransform="rotate(-45)"><line x1="0" y1="0" x2="0" y2="7" stroke="#0b5fa5" stroke-width="1.2"/></pattern>
<pattern id="dots" width="6" height="6" patternUnits="userSpaceOnUse"><circle cx="3" cy="3" r="1" fill="#64748b"/></pattern>
</defs>
<rect width="500" height="348" fill="#ffffff"/>
<rect x="14" y="30" width="112" height="94" fill="#f1f5f9" stroke="none" stroke-width="1.5" rx="6"/>
<line x1="54" y1="59" x2="64" y2="59" stroke="#1a2233" stroke-width="1.4" stroke-linecap="round"/>
<circle cx="64" cy="59" r="1.8" fill="#1a2233" stroke="#1a2233" stroke-width="1.5"/>
<circle cx="76" cy="59" r="1.8" fill="#1a2233" stroke="#1a2233" stroke-width="1.5"/>
<line x1="76" y1="59" x2="86" y2="59" stroke="#1a2233" stroke-width="1.4" stroke-linecap="round"/>
<line x1="64" y1="59" x2="76" y2="51" stroke="#1a2233" stroke-width="1.4" stroke-linecap="round"/>
<path d="M64,59 l-6,4" fill="none" stroke="#1a2233" stroke-width="1.2" stroke-linejoin="round" stroke-linecap="round"/>
<text x="70" y="96" font-size="9.5" text-anchor="middle" font-weight="600" fill="#1a2233">limit switch NO</text>
<text x="70" y="108" font-size="8.2" text-anchor="middle" fill="#5b6577">opens at rest</text>
<rect x="132" y="30" width="112" height="94" fill="#f1f5f9" stroke="none" stroke-width="1.5" rx="6"/>
<line x1="172" y1="59" x2="182" y2="59" stroke="#1a2233" stroke-width="1.4" stroke-linecap="round"/>
<circle cx="182" cy="59" r="1.8" fill="#1a2233" stroke="#1a2233" stroke-width="1.5"/>
<circle cx="194" cy="59" r="1.8" fill="#1a2233" stroke="#1a2233" stroke-width="1.5"/>
<line x1="194" y1="59" x2="204" y2="59" stroke="#1a2233" stroke-width="1.4" stroke-linecap="round"/>
<line x1="180" y1="51" x2="194" y2="59.5" stroke="#1a2233" stroke-width="1.4" stroke-linecap="round"/>
<line x1="182" y1="59" x2="180" y2="51" stroke="#1a2233" stroke-width="0" stroke-linecap="round"/>
<path d="M182,59 l-6,4" fill="none" stroke="#1a2233" stroke-width="1.2" stroke-linejoin="round" stroke-linecap="round"/>
<text x="188" y="96" font-size="9.5" text-anchor="middle" font-weight="600" fill="#1a2233">limit switch NC</text>
<text x="188" y="108" font-size="8.2" text-anchor="middle" fill="#5b6577">closed at rest</text>
<rect x="250" y="30" width="112" height="94" fill="#f1f5f9" stroke="none" stroke-width="1.5" rx="6"/>
<line x1="290" y1="59" x2="300" y2="59" stroke="#1a2233" stroke-width="1.4" stroke-linecap="round"/>
<circle cx="300" cy="59" r="1.8" fill="#1a2233" stroke="#1a2233" stroke-width="1.5"/>
<circle cx="312" cy="59" r="1.8" fill="#1a2233" stroke="#1a2233" stroke-width="1.5"/>
<line x1="312" y1="59" x2="322" y2="59" stroke="#1a2233" stroke-width="1.4" stroke-linecap="round"/>
<line x1="300" y1="59" x2="312" y2="51" stroke="#1a2233" stroke-width="1.4" stroke-linecap="round"/>
<line x1="294" y1="55" x2="294" y2="45" stroke="#1a2233" stroke-width="1.2" stroke-linecap="round"/>
<line x1="300" y1="59" x2="312" y2="51" stroke="#1a2233" stroke-width="0" stroke-linecap="round"/>
<line x1="300" y1="59" x2="312" y2="59.5" stroke="#1a2233" stroke-width="1.4" stroke-linecap="round"/>
<text x="306" y="96" font-size="9.5" text-anchor="middle" font-weight="600" fill="#1a2233">limit NO, held closed</text>
<text x="306" y="108" font-size="8.2" text-anchor="middle" fill="#5b6577">actuated when drawn</text>
<rect x="368" y="30" width="112" height="94" fill="#f1f5f9" stroke="none" stroke-width="1.5" rx="6"/>
<line x1="408" y1="59" x2="418" y2="59" stroke="#1a2233" stroke-width="1.4" stroke-linecap="round"/>
<circle cx="418" cy="59" r="1.8" fill="#1a2233" stroke="#1a2233" stroke-width="1.5"/>
<circle cx="430" cy="59" r="1.8" fill="#1a2233" stroke="#1a2233" stroke-width="1.5"/>
<line x1="430" y1="59" x2="440" y2="59" stroke="#1a2233" stroke-width="1.4" stroke-linecap="round"/>
<line x1="416" y1="51" x2="430" y2="59.5" stroke="#1a2233" stroke-width="1.4" stroke-linecap="round"/>
<line x1="418" y1="59" x2="416" y2="51" stroke="#1a2233" stroke-width="0" stroke-linecap="round"/>
<line x1="412" y1="55" x2="412" y2="45" stroke="#1a2233" stroke-width="1.2" stroke-linecap="round"/>
<line x1="418" y1="59" x2="430" y2="51" stroke="#1a2233" stroke-width="1.4" stroke-linecap="round"/>
<text x="424" y="96" font-size="9.5" text-anchor="middle" font-weight="600" fill="#1a2233">limit NC, held open</text>
<text x="424" y="108" font-size="8.2" text-anchor="middle" fill="#5b6577">actuated when drawn</text>
<rect x="14" y="130" width="112" height="94" fill="#f1f5f9" stroke="none" stroke-width="1.5" rx="6"/>
<line x1="54" y1="153" x2="64" y2="153" stroke="#1a2233" stroke-width="1.4" stroke-linecap="round"/>
<circle cx="64" cy="153" r="1.8" fill="#1a2233" stroke="#1a2233" stroke-width="1.5"/>
<circle cx="76" cy="153" r="1.8" fill="#1a2233" stroke="#1a2233" stroke-width="1.5"/>
<line x1="76" y1="153" x2="86" y2="153" stroke="#1a2233" stroke-width="1.4" stroke-linecap="round"/>
<line x1="64" y1="153" x2="76" y2="145" stroke="#1a2233" stroke-width="1.4" stroke-linecap="round"/>
<line x1="64" y1="153" x2="64" y2="165" stroke="#1a2233" stroke-width="1" stroke-linecap="round"/>
<path d="M58,165 a6,6 0 0 0 12,0 z" fill="none" stroke="#1a2233" stroke-width="1.2" stroke-linejoin="round" stroke-linecap="round"/>
<text x="70" y="196" font-size="9.5" text-anchor="middle" font-weight="600" fill="#1a2233">pressure switch NO</text>
<text x="70" y="208" font-size="8.2" text-anchor="middle" fill="#5b6577">closes on rising pressure</text>
<rect x="132" y="130" width="112" height="94" fill="#f1f5f9" stroke="none" stroke-width="1.5" rx="6"/>
<line x1="172" y1="153" x2="182" y2="153" stroke="#1a2233" stroke-width="1.4" stroke-linecap="round"/>
<circle cx="182" cy="153" r="1.8" fill="#1a2233" stroke="#1a2233" stroke-width="1.5"/>
<circle cx="194" cy="153" r="1.8" fill="#1a2233" stroke="#1a2233" stroke-width="1.5"/>
<line x1="194" y1="153" x2="204" y2="153" stroke="#1a2233" stroke-width="1.4" stroke-linecap="round"/>
<line x1="182" y1="153" x2="195" y2="158" stroke="#1a2233" stroke-width="1.4" stroke-linecap="round"/>
<line x1="182" y1="153" x2="182" y2="165" stroke="#1a2233" stroke-width="1" stroke-linecap="round"/>
<path d="M176,165 a6,6 0 0 0 12,0 z" fill="none" stroke="#1a2233" stroke-width="1.2" stroke-linejoin="round" stroke-linecap="round"/>
<text x="188" y="196" font-size="9.5" text-anchor="middle" font-weight="600" fill="#1a2233">pressure switch NC</text>
<text x="188" y="208" font-size="8.2" text-anchor="middle" fill="#5b6577">opens on rising pressure</text>
<rect x="250" y="130" width="112" height="94" fill="#f1f5f9" stroke="none" stroke-width="1.5" rx="6"/>
<line x1="290" y1="153" x2="300" y2="153" stroke="#1a2233" stroke-width="1.4" stroke-linecap="round"/>
<circle cx="300" cy="153" r="1.8" fill="#1a2233" stroke="#1a2233" stroke-width="1.5"/>
<circle cx="312" cy="153" r="1.8" fill="#1a2233" stroke="#1a2233" stroke-width="1.5"/>
<line x1="312" y1="153" x2="322" y2="153" stroke="#1a2233" stroke-width="1.4" stroke-linecap="round"/>
<line x1="300" y1="153" x2="312" y2="145" stroke="#1a2233" stroke-width="1.4" stroke-linecap="round"/>
<line x1="300" y1="153" x2="300" y2="165" stroke="#1a2233" stroke-width="1" stroke-linecap="round"/>
<path d="M300,165 l-6,-4 M300,165 l-6,4" fill="none" stroke="#1a2233" stroke-width="0" stroke-linejoin="round" stroke-linecap="round"/>
<circle cx="300" cy="169" r="3.5" fill="#ffffff" stroke="#1a2233" stroke-width="1.5"/>
<line x1="300" y1="165.5" x2="300" y2="169" stroke="#1a2233" stroke-width="1.2" stroke-linecap="round"/>
<text x="306" y="196" font-size="9.5" text-anchor="middle" font-weight="600" fill="#1a2233">temperature switch</text>
<text x="306" y="208" font-size="8.2" text-anchor="middle" fill="#5b6577">thermostat</text>
<rect x="368" y="130" width="112" height="94" fill="#f1f5f9" stroke="none" stroke-width="1.5" rx="6"/>
<line x1="408" y1="153" x2="418" y2="153" stroke="#1a2233" stroke-width="1.4" stroke-linecap="round"/>
<circle cx="418" cy="153" r="1.8" fill="#1a2233" stroke="#1a2233" stroke-width="1.5"/>
<circle cx="430" cy="153" r="1.8" fill="#1a2233" stroke="#1a2233" stroke-width="1.5"/>
<line x1="430" y1="153" x2="440" y2="153" stroke="#1a2233" stroke-width="1.4" stroke-linecap="round"/>
<line x1="418" y1="153" x2="430" y2="145" stroke="#1a2233" stroke-width="1.4" stroke-linecap="round"/>
<line x1="418" y1="153" x2="418" y2="165" stroke="#1a2233" stroke-width="1" stroke-linecap="round"/>
<path d="M412,165 l12,0 m-4,-4 l4,4 l-4,4" fill="none" stroke="#1a2233" stroke-width="1.2" stroke-linejoin="round" stroke-linecap="round"/>
<text x="424" y="196" font-size="9.5" text-anchor="middle" font-weight="600" fill="#1a2233">flow switch</text>
<text x="424" y="208" font-size="8.2" text-anchor="middle" fill="#5b6577">paddle or thermal</text>
<rect x="14" y="230" width="112" height="94" fill="#f1f5f9" stroke="none" stroke-width="1.5" rx="6"/>
<line x1="54" y1="253" x2="64" y2="253" stroke="#1a2233" stroke-width="1.4" stroke-linecap="round"/>
<circle cx="64" cy="253" r="1.8" fill="#1a2233" stroke="#1a2233" stroke-width="1.5"/>
<circle cx="76" cy="253" r="1.8" fill="#1a2233" stroke="#1a2233" stroke-width="1.5"/>
<line x1="76" y1="253" x2="86" y2="253" stroke="#1a2233" stroke-width="1.4" stroke-linecap="round"/>
<line x1="64" y1="253" x2="76" y2="245" stroke="#1a2233" stroke-width="1.4" stroke-linecap="round"/>
<line x1="64" y1="253" x2="64" y2="265" stroke="#1a2233" stroke-width="1" stroke-linecap="round"/>
<circle cx="64" cy="269" r="4" fill="#ffffff" stroke="#1a2233" stroke-width="1.5"/>
<text x="70" y="296" font-size="9.5" text-anchor="middle" font-weight="600" fill="#1a2233">float switch</text>
<text x="70" y="308" font-size="8.2" text-anchor="middle" fill="#5b6577">level</text>
<rect x="132" y="230" width="112" height="94" fill="#f1f5f9" stroke="none" stroke-width="1.5" rx="6"/>
<line x1="172" y1="253" x2="182" y2="253" stroke="#1a2233" stroke-width="1.4" stroke-linecap="round"/>
<circle cx="182" cy="253" r="1.8" fill="#1a2233" stroke="#1a2233" stroke-width="1.5"/>
<circle cx="194" cy="253" r="1.8" fill="#1a2233" stroke="#1a2233" stroke-width="1.5"/>
<line x1="194" y1="253" x2="204" y2="253" stroke="#1a2233" stroke-width="1.4" stroke-linecap="round"/>
<line x1="182" y1="253" x2="194" y2="245" stroke="#1a2233" stroke-width="1.4" stroke-linecap="round"/>
<line x1="182" y1="253" x2="182" y2="265" stroke="#1a2233" stroke-width="1" stroke-linecap="round"/>
<path d="M176,265 L188,265 L182,272 Z" fill="#ffffff" stroke="#1a2233" stroke-width="1.2" stroke-linejoin="round" stroke-linecap="round"/>
<line x1="174" y1="275" x2="190" y2="275" stroke="#1a2233" stroke-width="1" stroke-dasharray="2 2" stroke-linecap="round"/>
<text x="188" y="296" font-size="9.5" text-anchor="middle" font-weight="600" fill="#1a2233">proximity switch</text>
<text x="188" y="308" font-size="8.2" text-anchor="middle" fill="#5b6577">inductive or capacitive</text>
<rect x="250" y="230" width="112" height="94" fill="#f1f5f9" stroke="none" stroke-width="1.5" rx="6"/>
<line x1="290" y1="253" x2="300" y2="253" stroke="#1a2233" stroke-width="1.4" stroke-linecap="round"/>
<circle cx="300" cy="253" r="1.8" fill="#1a2233" stroke="#1a2233" stroke-width="1.5"/>
<circle cx="312" cy="253" r="1.8" fill="#1a2233" stroke="#1a2233" stroke-width="1.5"/>
<line x1="312" y1="253" x2="322" y2="253" stroke="#1a2233" stroke-width="1.4" stroke-linecap="round"/>
<line x1="300" y1="253" x2="312" y2="245" stroke="#1a2233" stroke-width="1.4" stroke-linecap="round"/>
<line x1="300" y1="253" x2="300" y2="265" stroke="#1a2233" stroke-width="1" stroke-linecap="round"/>
<circle cx="300" cy="269" r="4" fill="#ffffff" stroke="#1a2233" stroke-width="1.5"/>
<path d="M296,269 a4,4 0 0 1 8,0" fill="none" stroke="#1a2233" stroke-width="1" stroke-linejoin="round" stroke-linecap="round" marker-end="url(#arr)"/>
<text x="306" y="296" font-size="9.5" text-anchor="middle" font-weight="600" fill="#1a2233">speed switch</text>
<text x="306" y="308" font-size="8.2" text-anchor="middle" fill="#5b6577">zero-speed, overspeed</text>
<rect x="368" y="230" width="112" height="94" fill="#f1f5f9" stroke="none" stroke-width="1.5" rx="6"/>
<line x1="408" y1="253" x2="418" y2="253" stroke="#1a2233" stroke-width="1.4" stroke-linecap="round"/>
<circle cx="418" cy="253" r="1.8" fill="#1a2233" stroke="#1a2233" stroke-width="1.5"/>
<circle cx="430" cy="253" r="1.8" fill="#1a2233" stroke="#1a2233" stroke-width="1.5"/>
<line x1="430" y1="253" x2="440" y2="253" stroke="#1a2233" stroke-width="1.4" stroke-linecap="round"/>
<line x1="418" y1="253" x2="430" y2="245" stroke="#1a2233" stroke-width="1.4" stroke-linecap="round"/>
<line x1="418" y1="253" x2="418" y2="265" stroke="#1a2233" stroke-width="1" stroke-linecap="round"/>
<path d="M412,265 L412,273 L426,269" fill="none" stroke="#1a2233" stroke-width="1.4" stroke-linejoin="round" stroke-linecap="round"/>
<text x="424" y="296" font-size="9.5" text-anchor="middle" font-weight="600" fill="#1a2233">foot switch</text>
<text x="250" y="340" font-size="12" text-anchor="middle" fill="#5b6577" font-style="italic">Drawn with the process at rest: no pressure, no flow, tank empty.</text>
</svg>