<svg xmlns="http://www.w3.org/2000/svg" viewBox="0 0 500 260" width="500" height="260" font-family="system-ui, -apple-system, Segoe UI, Roboto, Helvetica, Arial, sans-serif" font-size="13" fill="#1a2233">
<title>Revisions, clouds and stamps</title>
<defs>
<marker id="arr" viewBox="0 0 10 10" refX="9" refY="5" markerWidth="7" markerHeight="7" orient="auto-start-reverse"><path d="M0,0 L10,5 L0,10 z" fill="context-stroke"/></marker>
<marker id="dot" viewBox="0 0 10 10" refX="5" refY="5" markerWidth="5" markerHeight="5"><circle cx="5" cy="5" r="4" fill="context-stroke"/></marker>
<pattern id="hatch" width="7" height="7" patternUnits="userSpaceOnUse" patternTransform="rotate(45)"><line x1="0" y1="0" x2="0" y2="7" stroke="#64748b" stroke-width="1.2"/></pattern>
<pattern id="hatch2" width="7" height="7" patternUnits="userSpaceOnUse" patternTransform="rotate(-45)"><line x1="0" y1="0" x2="0" y2="7" stroke="#0b5fa5" stroke-width="1.2"/></pattern>
<pattern id="dots" width="6" height="6" patternUnits="userSpaceOnUse"><circle cx="3" cy="3" r="1" fill="#64748b"/></pattern>
</defs>
<rect width="500" height="260" fill="#ffffff"/>
<text x="120" y="22" font-size="11" text-anchor="middle" font-weight="700" fill="#1a2233">Revision block</text>
<rect x="20" y="32" width="232" height="18" fill="#f1f5f9" stroke="#94a3b8" stroke-width="1.5"/>
<text x="26" y="44.24" font-size="7" text-anchor="start" font-weight="600" fill="#1a2233">REV</text>
<text x="56" y="44.24" font-size="7" text-anchor="start" font-weight="600" fill="#1a2233">DESCRIPTION</text>
<text x="188" y="44.24" font-size="7" text-anchor="start" font-weight="600" fill="#1a2233">DATE</text>
<text x="234" y="44.24" font-size="7" text-anchor="start" font-weight="600" fill="#1a2233">BY</text>
<rect x="20" y="50" width="232" height="18" fill="#ffffff" stroke="#94a3b8" stroke-width="1.5"/>
<text x="26" y="62.24" font-size="7" text-anchor="start" fill="#1a2233">A</text>
<text x="56" y="62.24" font-size="7" text-anchor="start" fill="#1a2233">ISSUED FOR REVIEW</text>
<text x="188" y="62.24" font-size="7" text-anchor="start" fill="#1a2233">06/10/26</text>
<text x="234" y="62.24" font-size="7" text-anchor="start" fill="#1a2233">RJ</text>
<rect x="20" y="68" width="232" height="18" fill="#ffffff" stroke="#94a3b8" stroke-width="1.5"/>
<text x="26" y="80.24" font-size="7" text-anchor="start" fill="#1a2233">B</text>
<text x="56" y="80.24" font-size="7" text-anchor="start" fill="#1a2233">ISSUED FOR CONSTRUCTION</text>
<text x="188" y="80.24" font-size="7" text-anchor="start" fill="#1a2233">07/22/26</text>
<text x="234" y="80.24" font-size="7" text-anchor="start" fill="#1a2233">RJ</text>
<rect x="20" y="86" width="232" height="18" fill="#ffffff" stroke="#94a3b8" stroke-width="1.5"/>
<text x="26" y="98.24" font-size="7" text-anchor="start" fill="#1a2233">C</text>
<text x="56" y="98.24" font-size="7" text-anchor="start" fill="#1a2233">BOLT PROJ. 4 TO 5 IN, ZONE C3</text>
<text x="188" y="98.24" font-size="7" text-anchor="start" fill="#1a2233">09/15/26</text>
<text x="234" y="98.24" font-size="7" text-anchor="start" fill="#1a2233">TL</text>
<text x="120" y="126" font-size="7.5" text-anchor="middle" fill="#5b6577">newest revision on top; the description says where to look</text>
<text x="370" y="22" font-size="11" text-anchor="middle" font-weight="700" fill="#1a2233">Revision cloud and flag</text>
<rect x="300" y="60" width="140" height="40" fill="#f1f5f9" stroke="#1a2233" stroke-width="1.5"/>
<line x1="300" y1="110" x2="440" y2="110" stroke="#1a2233" stroke-width="1" stroke-linecap="round" marker-end="url(#arr)" marker-start="url(#arr)"/>
<line x1="300" y1="100" x2="300" y2="114" stroke="#5b6577" stroke-width="0.8" stroke-linecap="round"/>
<line x1="440" y1="100" x2="440" y2="114" stroke="#5b6577" stroke-width="0.8" stroke-linecap="round"/>
<text x="370" y="108" font-size="9" text-anchor="middle" font-weight="700" fill="#b91c1c">5.00</text>
<path d="M424.0,108.0 A7,7 0 0 1 421.5,112.9 A7,7 0 0 1 414.1,117.4 A7,7 0 0 1 402.6,120.9 A7,7 0 0 1 388.1,123.2 A7,7 0 0 1 372.0,124.0 A7,7 0 0 1 355.9,123.2 A7,7 0 0 1 341.4,120.9 A7,7 0 0 1 329.9,117.4 A7,7 0 0 1 322.5,112.9 A7,7 0 0 1 320.0,108.0 A7,7 0 0 1 322.5,103.1 A7,7 0 0 1 329.9,98.6 A7,7 0 0 1 341.4,95.1 A7,7 0 0 1 355.9,92.8 A7,7 0 0 1 372.0,92.0 A7,7 0 0 1 388.1,92.8 A7,7 0 0 1 402.6,95.1 A7,7 0 0 1 414.1,98.6 A7,7 0 0 1 421.5,103.1 A7,7 0 0 1 424.0,108.0" fill="none" stroke="#b91c1c" stroke-width="1.2" stroke-linejoin="round" stroke-linecap="round"/>
<path d="M440,118 L452,138 L428,138 Z" fill="#ffffff" stroke="#b91c1c" stroke-width="1.2" stroke-linejoin="round" stroke-linecap="round"/>
<text x="440" y="135" font-size="8" text-anchor="middle" font-weight="700" fill="#b91c1c">C</text>
<text x="250" y="172" font-size="11" text-anchor="middle" font-weight="700" fill="#1a2233">Status stamps</text>
<rect x="60" y="182" width="110" height="26" fill="#ffffff" stroke="#5b6577" stroke-width="1.6" rx="3"/>
<text x="115" y="199" font-size="6.5" text-anchor="middle" font-weight="700" fill="#5b6577">ISSUED FOR REVIEW</text>
<text x="115" y="222" font-size="7" text-anchor="middle" fill="#5b6577">do not build</text>
<rect x="190" y="182" width="120" height="26" fill="#ffffff" stroke="#166534" stroke-width="1.6" rx="3"/>
<text x="250" y="199" font-size="6.5" text-anchor="middle" font-weight="700" fill="#166534">ISSUED FOR CONSTRUCTION</text>
<text x="250" y="222" font-size="7" text-anchor="middle" fill="#5b6577">build to this</text>
<rect x="330" y="182" width="70" height="26" fill="#ffffff" stroke="#0b5fa5" stroke-width="1.6" rx="3"/>
<text x="365" y="199" font-size="6.5" text-anchor="middle" font-weight="700" fill="#0b5fa5">AS-BUILT</text>
<text x="365" y="222" font-size="7" text-anchor="middle" fill="#5b6577">what was built</text>
<rect x="420" y="182" width="50" height="26" fill="#ffffff" stroke="#b91c1c" stroke-width="1.6" rx="3"/>
<text x="445" y="199" font-size="6.5" text-anchor="middle" font-weight="700" fill="#b91c1c">HOLD</text>
<text x="445" y="222" font-size="7" text-anchor="middle" fill="#5b6577">stop: question open</text>
<text x="250" y="252" font-size="12" text-anchor="middle" fill="#5b6577" font-style="italic">A cloud marks what changed; the flag says which revision changed it.</text>
</svg>