<svg xmlns="http://www.w3.org/2000/svg" viewBox="0 0 500 274" width="500" height="274" font-family="system-ui, -apple-system, Segoe UI, Roboto, Helvetica, Arial, sans-serif" font-size="13" fill="#1a2233">
<title>Fluid seal compatibility</title>
<defs>
<marker id="arr" viewBox="0 0 10 10" refX="9" refY="5" markerWidth="7" markerHeight="7" orient="auto-start-reverse"><path d="M0,0 L10,5 L0,10 z" fill="context-stroke"/></marker>
<marker id="dot" viewBox="0 0 10 10" refX="5" refY="5" markerWidth="5" markerHeight="5"><circle cx="5" cy="5" r="4" fill="context-stroke"/></marker>
<pattern id="hatch" width="7" height="7" patternUnits="userSpaceOnUse" patternTransform="rotate(45)"><line x1="0" y1="0" x2="0" y2="7" stroke="#64748b" stroke-width="1.2"/></pattern>
<pattern id="hatch2" width="7" height="7" patternUnits="userSpaceOnUse" patternTransform="rotate(-45)"><line x1="0" y1="0" x2="0" y2="7" stroke="#0b5fa5" stroke-width="1.2"/></pattern>
<pattern id="dots" width="6" height="6" patternUnits="userSpaceOnUse"><circle cx="3" cy="3" r="1" fill="#64748b"/></pattern>
</defs>
<rect width="500" height="274" fill="#ffffff"/>
<text x="250" y="22" font-size="11.5" text-anchor="middle" font-weight="700" fill="#1a2233">Seal compatibility by fluid family</text>
<text x="131" y="46" font-size="9.5" text-anchor="middle" font-weight="600" fill="#1a2233">Mineral</text>
<text x="183" y="46" font-size="9.5" text-anchor="middle" font-weight="600" fill="#1a2233">HFC</text>
<text x="235" y="46" font-size="9.5" text-anchor="middle" font-weight="600" fill="#1a2233">HFDR</text>
<text x="287" y="46" font-size="9.5" text-anchor="middle" font-weight="600" fill="#1a2233">HFDU</text>
<text x="339" y="46" font-size="9.5" text-anchor="middle" font-weight="600" fill="#1a2233">HEES</text>
<text x="391" y="46" font-size="9.5" text-anchor="middle" font-weight="600" fill="#1a2233">HEPG</text>
<text x="443" y="46" font-size="9.5" text-anchor="middle" font-weight="600" fill="#1a2233">Brake fl.</text>
<text x="96" y="72" font-size="10" text-anchor="end" font-weight="600" fill="#1a2233">NBR</text>
<rect x="105" y="55" width="52" height="26" fill="#dcfce7" stroke="#94a3b8" stroke-width="1.5"/>
<text x="131" y="72" font-size="11" text-anchor="middle" font-weight="600" fill="#1a2233">Y</text>
<rect x="157" y="55" width="52" height="26" fill="#dcfce7" stroke="#94a3b8" stroke-width="1.5"/>
<text x="183" y="72" font-size="11" text-anchor="middle" font-weight="600" fill="#1a2233">Y</text>
<rect x="209" y="55" width="52" height="26" fill="#fee2e2" stroke="#94a3b8" stroke-width="1.5"/>
<text x="235" y="72" font-size="11" text-anchor="middle" font-weight="600" fill="#1a2233">N</text>
<rect x="261" y="55" width="52" height="26" fill="#fff4d6" stroke="#94a3b8" stroke-width="1.5"/>
<text x="287" y="72" font-size="11" text-anchor="middle" font-weight="600" fill="#1a2233">C</text>
<rect x="313" y="55" width="52" height="26" fill="#fff4d6" stroke="#94a3b8" stroke-width="1.5"/>
<text x="339" y="72" font-size="11" text-anchor="middle" font-weight="600" fill="#1a2233">C</text>
<rect x="365" y="55" width="52" height="26" fill="#fff4d6" stroke="#94a3b8" stroke-width="1.5"/>
<text x="391" y="72" font-size="11" text-anchor="middle" font-weight="600" fill="#1a2233">C</text>
<rect x="417" y="55" width="52" height="26" fill="#fee2e2" stroke="#94a3b8" stroke-width="1.5"/>
<text x="443" y="72" font-size="11" text-anchor="middle" font-weight="600" fill="#1a2233">N</text>
<text x="96" y="98" font-size="10" text-anchor="end" font-weight="600" fill="#1a2233">HNBR</text>
<rect x="105" y="81" width="52" height="26" fill="#dcfce7" stroke="#94a3b8" stroke-width="1.5"/>
<text x="131" y="98" font-size="11" text-anchor="middle" font-weight="600" fill="#1a2233">Y</text>
<rect x="157" y="81" width="52" height="26" fill="#dcfce7" stroke="#94a3b8" stroke-width="1.5"/>
<text x="183" y="98" font-size="11" text-anchor="middle" font-weight="600" fill="#1a2233">Y</text>
<rect x="209" y="81" width="52" height="26" fill="#fee2e2" stroke="#94a3b8" stroke-width="1.5"/>
<text x="235" y="98" font-size="11" text-anchor="middle" font-weight="600" fill="#1a2233">N</text>
<rect x="261" y="81" width="52" height="26" fill="#dcfce7" stroke="#94a3b8" stroke-width="1.5"/>
<text x="287" y="98" font-size="11" text-anchor="middle" font-weight="600" fill="#1a2233">Y</text>
<rect x="313" y="81" width="52" height="26" fill="#dcfce7" stroke="#94a3b8" stroke-width="1.5"/>
<text x="339" y="98" font-size="11" text-anchor="middle" font-weight="600" fill="#1a2233">Y</text>
<rect x="365" y="81" width="52" height="26" fill="#fff4d6" stroke="#94a3b8" stroke-width="1.5"/>
<text x="391" y="98" font-size="11" text-anchor="middle" font-weight="600" fill="#1a2233">C</text>
<rect x="417" y="81" width="52" height="26" fill="#fee2e2" stroke="#94a3b8" stroke-width="1.5"/>
<text x="443" y="98" font-size="11" text-anchor="middle" font-weight="600" fill="#1a2233">N</text>
<text x="96" y="124" font-size="10" text-anchor="end" font-weight="600" fill="#1a2233">FKM</text>
<rect x="105" y="107" width="52" height="26" fill="#dcfce7" stroke="#94a3b8" stroke-width="1.5"/>
<text x="131" y="124" font-size="11" text-anchor="middle" font-weight="600" fill="#1a2233">Y</text>
<rect x="157" y="107" width="52" height="26" fill="#fff4d6" stroke="#94a3b8" stroke-width="1.5"/>
<text x="183" y="124" font-size="11" text-anchor="middle" font-weight="600" fill="#1a2233">C</text>
<rect x="209" y="107" width="52" height="26" fill="#dcfce7" stroke="#94a3b8" stroke-width="1.5"/>
<text x="235" y="124" font-size="11" text-anchor="middle" font-weight="600" fill="#1a2233">Y</text>
<rect x="261" y="107" width="52" height="26" fill="#dcfce7" stroke="#94a3b8" stroke-width="1.5"/>
<text x="287" y="124" font-size="11" text-anchor="middle" font-weight="600" fill="#1a2233">Y</text>
<rect x="313" y="107" width="52" height="26" fill="#dcfce7" stroke="#94a3b8" stroke-width="1.5"/>
<text x="339" y="124" font-size="11" text-anchor="middle" font-weight="600" fill="#1a2233">Y</text>
<rect x="365" y="107" width="52" height="26" fill="#dcfce7" stroke="#94a3b8" stroke-width="1.5"/>
<text x="391" y="124" font-size="11" text-anchor="middle" font-weight="600" fill="#1a2233">Y</text>
<rect x="417" y="107" width="52" height="26" fill="#fee2e2" stroke="#94a3b8" stroke-width="1.5"/>
<text x="443" y="124" font-size="11" text-anchor="middle" font-weight="600" fill="#1a2233">N</text>
<text x="96" y="150" font-size="10" text-anchor="end" font-weight="600" fill="#1a2233">EPDM</text>
<rect x="105" y="133" width="52" height="26" fill="#fee2e2" stroke="#94a3b8" stroke-width="1.5"/>
<text x="131" y="150" font-size="11" text-anchor="middle" font-weight="600" fill="#1a2233">N</text>
<rect x="157" y="133" width="52" height="26" fill="#dcfce7" stroke="#94a3b8" stroke-width="1.5"/>
<text x="183" y="150" font-size="11" text-anchor="middle" font-weight="600" fill="#1a2233">Y</text>
<rect x="209" y="133" width="52" height="26" fill="#dcfce7" stroke="#94a3b8" stroke-width="1.5"/>
<text x="235" y="150" font-size="11" text-anchor="middle" font-weight="600" fill="#1a2233">Y</text>
<rect x="261" y="133" width="52" height="26" fill="#fee2e2" stroke="#94a3b8" stroke-width="1.5"/>
<text x="287" y="150" font-size="11" text-anchor="middle" font-weight="600" fill="#1a2233">N</text>
<rect x="313" y="133" width="52" height="26" fill="#fee2e2" stroke="#94a3b8" stroke-width="1.5"/>
<text x="339" y="150" font-size="11" text-anchor="middle" font-weight="600" fill="#1a2233">N</text>
<rect x="365" y="133" width="52" height="26" fill="#dcfce7" stroke="#94a3b8" stroke-width="1.5"/>
<text x="391" y="150" font-size="11" text-anchor="middle" font-weight="600" fill="#1a2233">Y</text>
<rect x="417" y="133" width="52" height="26" fill="#dcfce7" stroke="#94a3b8" stroke-width="1.5"/>
<text x="443" y="150" font-size="11" text-anchor="middle" font-weight="600" fill="#1a2233">Y</text>
<text x="96" y="176" font-size="10" text-anchor="end" font-weight="600" fill="#1a2233">PU</text>
<rect x="105" y="159" width="52" height="26" fill="#dcfce7" stroke="#94a3b8" stroke-width="1.5"/>
<text x="131" y="176" font-size="11" text-anchor="middle" font-weight="600" fill="#1a2233">Y</text>
<rect x="157" y="159" width="52" height="26" fill="#fee2e2" stroke="#94a3b8" stroke-width="1.5"/>
<text x="183" y="176" font-size="11" text-anchor="middle" font-weight="600" fill="#1a2233">N</text>
<rect x="209" y="159" width="52" height="26" fill="#fee2e2" stroke="#94a3b8" stroke-width="1.5"/>
<text x="235" y="176" font-size="11" text-anchor="middle" font-weight="600" fill="#1a2233">N</text>
<rect x="261" y="159" width="52" height="26" fill="#fff4d6" stroke="#94a3b8" stroke-width="1.5"/>
<text x="287" y="176" font-size="11" text-anchor="middle" font-weight="600" fill="#1a2233">C</text>
<rect x="313" y="159" width="52" height="26" fill="#fff4d6" stroke="#94a3b8" stroke-width="1.5"/>
<text x="339" y="176" font-size="11" text-anchor="middle" font-weight="600" fill="#1a2233">C</text>
<rect x="365" y="159" width="52" height="26" fill="#fee2e2" stroke="#94a3b8" stroke-width="1.5"/>
<text x="391" y="176" font-size="11" text-anchor="middle" font-weight="600" fill="#1a2233">N</text>
<rect x="417" y="159" width="52" height="26" fill="#fee2e2" stroke="#94a3b8" stroke-width="1.5"/>
<text x="443" y="176" font-size="11" text-anchor="middle" font-weight="600" fill="#1a2233">N</text>
<text x="96" y="202" font-size="10" text-anchor="end" font-weight="600" fill="#1a2233">PTFE</text>
<rect x="105" y="185" width="52" height="26" fill="#dcfce7" stroke="#94a3b8" stroke-width="1.5"/>
<text x="131" y="202" font-size="11" text-anchor="middle" font-weight="600" fill="#1a2233">Y</text>
<rect x="157" y="185" width="52" height="26" fill="#dcfce7" stroke="#94a3b8" stroke-width="1.5"/>
<text x="183" y="202" font-size="11" text-anchor="middle" font-weight="600" fill="#1a2233">Y</text>
<rect x="209" y="185" width="52" height="26" fill="#dcfce7" stroke="#94a3b8" stroke-width="1.5"/>
<text x="235" y="202" font-size="11" text-anchor="middle" font-weight="600" fill="#1a2233">Y</text>
<rect x="261" y="185" width="52" height="26" fill="#dcfce7" stroke="#94a3b8" stroke-width="1.5"/>
<text x="287" y="202" font-size="11" text-anchor="middle" font-weight="600" fill="#1a2233">Y</text>
<rect x="313" y="185" width="52" height="26" fill="#dcfce7" stroke="#94a3b8" stroke-width="1.5"/>
<text x="339" y="202" font-size="11" text-anchor="middle" font-weight="600" fill="#1a2233">Y</text>
<rect x="365" y="185" width="52" height="26" fill="#dcfce7" stroke="#94a3b8" stroke-width="1.5"/>
<text x="391" y="202" font-size="11" text-anchor="middle" font-weight="600" fill="#1a2233">Y</text>
<rect x="417" y="185" width="52" height="26" fill="#dcfce7" stroke="#94a3b8" stroke-width="1.5"/>
<text x="443" y="202" font-size="11" text-anchor="middle" font-weight="600" fill="#1a2233">Y</text>
<text x="20" y="228" font-size="8.8" text-anchor="start" fill="#5b6577">NBR nitrile · HNBR hydrogenated nitrile · FKM Viton · EPDM ethylene-propylene · PU polyurethane</text>
<text x="20" y="241" font-size="8.8" text-anchor="start" fill="#5b6577">HFC water-glycol · HFDR phosphate ester · HFDU polyol ester · HEES synthetic ester · HEPG polyglycol</text>
<text x="250" y="266" font-size="12" text-anchor="middle" fill="#5b6577" font-style="italic">Formulations differ: the fluid supplier sheet for that fluid governs.</text>
</svg>