<svg xmlns="http://www.w3.org/2000/svg" viewBox="0 0 500 280" width="500" height="280" font-family="system-ui, -apple-system, Segoe UI, Roboto, Helvetica, Arial, sans-serif" font-size="13" fill="#1a2233">
<title>Pump flow vs pressure</title>
<defs>
<marker id="arr" viewBox="0 0 10 10" refX="9" refY="5" markerWidth="7" markerHeight="7" orient="auto-start-reverse"><path d="M0,0 L10,5 L0,10 z" fill="context-stroke"/></marker>
<marker id="dot" viewBox="0 0 10 10" refX="5" refY="5" markerWidth="5" markerHeight="5"><circle cx="5" cy="5" r="4" fill="context-stroke"/></marker>
<pattern id="hatch" width="7" height="7" patternUnits="userSpaceOnUse" patternTransform="rotate(45)"><line x1="0" y1="0" x2="0" y2="7" stroke="#64748b" stroke-width="1.2"/></pattern>
<pattern id="hatch2" width="7" height="7" patternUnits="userSpaceOnUse" patternTransform="rotate(-45)"><line x1="0" y1="0" x2="0" y2="7" stroke="#0b5fa5" stroke-width="1.2"/></pattern>
<pattern id="dots" width="6" height="6" patternUnits="userSpaceOnUse"><circle cx="3" cy="3" r="1" fill="#64748b"/></pattern>
</defs>
<rect width="500" height="280" fill="#ffffff"/>
<rect x="60" y="30" width="400" height="190" fill="#ffffff" stroke="#94a3b8" stroke-width="1"/>
<line x1="60" y1="220" x2="460" y2="220" stroke="#e2e8f0" stroke-width="1" stroke-linecap="round"/>
<text x="54" y="224" font-size="11" text-anchor="end" fill="#5b6577">0</text>
<line x1="60" y1="182" x2="460" y2="182" stroke="#e2e8f0" stroke-width="1" stroke-linecap="round"/>
<text x="54" y="186" font-size="11" text-anchor="end" fill="#5b6577">5</text>
<line x1="60" y1="144" x2="460" y2="144" stroke="#e2e8f0" stroke-width="1" stroke-linecap="round"/>
<text x="54" y="148" font-size="11" text-anchor="end" fill="#5b6577">10</text>
<line x1="60" y1="106" x2="460" y2="106" stroke="#e2e8f0" stroke-width="1" stroke-linecap="round"/>
<text x="54" y="110" font-size="11" text-anchor="end" fill="#5b6577">15</text>
<line x1="60" y1="68" x2="460" y2="68" stroke="#e2e8f0" stroke-width="1" stroke-linecap="round"/>
<text x="54" y="72" font-size="11" text-anchor="end" fill="#5b6577">20</text>
<line x1="60" y1="30" x2="460" y2="30" stroke="#e2e8f0" stroke-width="1" stroke-linecap="round"/>
<text x="54" y="34" font-size="11" text-anchor="end" fill="#5b6577">25</text>
<line x1="60" y1="30" x2="60" y2="220" stroke="#e2e8f0" stroke-width="1" stroke-linecap="round"/>
<text x="60" y="234" font-size="11" text-anchor="middle" fill="#5b6577">0</text>
<line x1="193.33333333333331" y1="30" x2="193.33333333333331" y2="220" stroke="#e2e8f0" stroke-width="1" stroke-linecap="round"/>
<text x="193.33333333333331" y="234" font-size="11" text-anchor="middle" fill="#5b6577">1000</text>
<line x1="326.66666666666663" y1="30" x2="326.66666666666663" y2="220" stroke="#e2e8f0" stroke-width="1" stroke-linecap="round"/>
<text x="326.66666666666663" y="234" font-size="11" text-anchor="middle" fill="#5b6577">2000</text>
<line x1="460" y1="30" x2="460" y2="220" stroke="#e2e8f0" stroke-width="1" stroke-linecap="round"/>
<text x="460" y="234" font-size="11" text-anchor="middle" fill="#5b6577">3000</text>
<text x="260" y="250" font-size="12" text-anchor="middle" fill="#5b6577">Pressure (psi)</text>
<text x="26" y="125" font-size="12" text-anchor="middle" fill="#5b6577" transform="rotate(-90 26 125)">Flow (gpm)</text>
<line x1="60" y1="57.360000000000014" x2="460" y2="57.360000000000014" stroke="#5b6577" stroke-width="1" stroke-dasharray="4 3" stroke-linecap="round"/>
<text x="260" y="52.360000000000014" font-size="10" text-anchor="middle" fill="#5b6577">theoretical 21.4 gpm</text>
<path d="M60,58.879999999999995 L193.33333333333331,61.16 L326.66666666666663,64.20000000000002 L460,68" fill="none" stroke="#166534" stroke-width="2.5" stroke-linejoin="round" stroke-linecap="round"/>
<text x="380" y="60" font-size="10.5" text-anchor="start" font-weight="600" fill="#166534">new: ηv 0.93</text>
<path d="M60,63.44 L193.33333333333331,75.6 L326.66666666666663,94.6 L460,117.39999999999999" fill="none" stroke="#b91c1c" stroke-width="2.5" stroke-linejoin="round" stroke-linecap="round"/>
<text x="366.6666666666667" y="133.39999999999998" font-size="10.5" text-anchor="start" font-weight="600" fill="#b91c1c">worn: ηv 0.63</text>
<rect x="60" y="81.68" width="400" height="9.119999999999976" fill="#fee2e2" stroke="none" stroke-width="1.5" opacity="0.7"/>
<text x="153.33333333333331" y="87" font-size="9.5" text-anchor="middle" fill="#b91c1c">replace line: 80-85%</text>
<text x="250" y="272" font-size="12" text-anchor="middle" fill="#5b6577" font-style="italic">Same rpm, same oil temperature, flow meter in the pump outlet.</text>
</svg>