<svg xmlns="http://www.w3.org/2000/svg" viewBox="0 0 500 240" width="500" height="240" font-family="system-ui, -apple-system, Segoe UI, Roboto, Helvetica, Arial, sans-serif" font-size="13" fill="#1a2233">
<title>Sectional valve bank</title>
<defs>
<marker id="arr" viewBox="0 0 10 10" refX="9" refY="5" markerWidth="7" markerHeight="7" orient="auto-start-reverse"><path d="M0,0 L10,5 L0,10 z" fill="context-stroke"/></marker>
<marker id="dot" viewBox="0 0 10 10" refX="5" refY="5" markerWidth="5" markerHeight="5"><circle cx="5" cy="5" r="4" fill="context-stroke"/></marker>
<pattern id="hatch" width="7" height="7" patternUnits="userSpaceOnUse" patternTransform="rotate(45)"><line x1="0" y1="0" x2="0" y2="7" stroke="#64748b" stroke-width="1.2"/></pattern>
<pattern id="hatch2" width="7" height="7" patternUnits="userSpaceOnUse" patternTransform="rotate(-45)"><line x1="0" y1="0" x2="0" y2="7" stroke="#0b5fa5" stroke-width="1.2"/></pattern>
<pattern id="dots" width="6" height="6" patternUnits="userSpaceOnUse"><circle cx="3" cy="3" r="1" fill="#64748b"/></pattern>
</defs>
<rect width="500" height="240" fill="#ffffff"/>
<rect x="30" y="70" width="60" height="110" fill="#cbd5e1" stroke="#1a2233" stroke-width="1.5" rx="3"/>
<text x="60" y="96" font-size="10" text-anchor="middle" font-weight="600" fill="#1a2233">inlet</text>
<rect x="50" y="120" width="20" height="20" fill="#ffffff" stroke="#1a2233" stroke-width="1.5"/>
<line x1="53" y1="137" x2="67" y2="123" stroke="#1a2233" stroke-width="1.5" stroke-linecap="round" marker-end="url(#arr)"/>
<path d="M70,130 l6,0 l0,-14 l-3,0 m3,0 l3,0" fill="none" stroke="#1a2233" stroke-width="1" stroke-linejoin="round" stroke-linecap="round"/>
<path d="M50,130 l-6,0 l0,-5 l-3,0 l6,-3 l-6,-3 l3,0" fill="none" stroke="#1a2233" stroke-width="1" stroke-linejoin="round" stroke-linecap="round"/>

<text x="60" y="164" font-size="8.5" text-anchor="middle" fill="#1a2233">main</text>
<text x="60" y="174" font-size="8.5" text-anchor="middle" fill="#1a2233">relief</text>
<rect x="100" y="70" width="90" height="110" fill="#f1f5f9" stroke="#1a2233" stroke-width="1.5" rx="3"/>
<text x="145" y="86" font-size="9.5" text-anchor="middle" font-weight="600" fill="#1a2233">section 1</text>
<rect x="110" y="96" width="70" height="12" fill="#cbd5e1" stroke="#1a2233" stroke-width="1.5"/>
<rect x="117" y="96" width="10" height="12" fill="#64748b" stroke="#1a2233" stroke-width="1.5"/>
<rect x="140" y="96" width="10" height="12" fill="#64748b" stroke="#1a2233" stroke-width="1.5"/>
<rect x="163" y="96" width="10" height="12" fill="#64748b" stroke="#1a2233" stroke-width="1.5"/>
<line x1="180" y1="102" x2="196" y2="102" stroke="#1a2233" stroke-width="2" stroke-linecap="round"/>
<text x="145" y="122" font-size="8.5" text-anchor="middle" fill="#5b6577">spool</text>
<circle cx="145" cy="138" r="3.5" fill="#ffffff" stroke="#1a2233" stroke-width="1.5"/>
<path d="M140,143 L145,137 L150,143" fill="none" stroke="#1a2233" stroke-width="1.5" stroke-linejoin="round" stroke-linecap="round"/>
<text x="145" y="152" font-size="8" text-anchor="middle" fill="#5b6577">load check</text>
<path d="M114,168 L124,158 L124,178 Z" fill="#fee2e2" stroke="#b91c1c" stroke-width="1.5" stroke-linejoin="round" stroke-linecap="round"/>
<text x="119" y="188" font-size="7.5" text-anchor="middle" fill="#b91c1c">port</text>
<text x="119" y="197" font-size="7.5" text-anchor="middle" fill="#b91c1c">reliefs</text>
<path d="M176,168 L166,158 L166,178 Z" fill="#dcfce7" stroke="#166534" stroke-width="1.5" stroke-linejoin="round" stroke-linecap="round"/>
<text x="171" y="188" font-size="7.5" text-anchor="middle" fill="#166534">anti-cav</text>
<text x="171" y="197" font-size="7.5" text-anchor="middle" fill="#166534">checks</text>
<line x1="130" y1="60" x2="130" y2="70" stroke="#1a2233" stroke-width="1.5" stroke-linecap="round"/>
<line x1="160" y1="60" x2="160" y2="70" stroke="#1a2233" stroke-width="1.5" stroke-linecap="round"/>
<text x="130" y="56" font-size="8.5" text-anchor="middle" fill="#1a2233">A</text>
<text x="160" y="56" font-size="8.5" text-anchor="middle" fill="#1a2233">B</text>
<circle cx="145" cy="66" r="3" fill="#ffffff" stroke="#0b5fa5" stroke-width="1"/>
<rect x="200" y="70" width="90" height="110" fill="#f1f5f9" stroke="#1a2233" stroke-width="1.5" rx="3"/>
<text x="245" y="86" font-size="9.5" text-anchor="middle" font-weight="600" fill="#1a2233">section 2</text>
<rect x="210" y="96" width="70" height="12" fill="#cbd5e1" stroke="#1a2233" stroke-width="1.5"/>
<rect x="217" y="96" width="10" height="12" fill="#64748b" stroke="#1a2233" stroke-width="1.5"/>
<rect x="240" y="96" width="10" height="12" fill="#64748b" stroke="#1a2233" stroke-width="1.5"/>
<rect x="263" y="96" width="10" height="12" fill="#64748b" stroke="#1a2233" stroke-width="1.5"/>
<line x1="280" y1="102" x2="296" y2="102" stroke="#1a2233" stroke-width="2" stroke-linecap="round"/>
<text x="245" y="122" font-size="8.5" text-anchor="middle" fill="#5b6577">spool</text>
<circle cx="245" cy="138" r="3.5" fill="#ffffff" stroke="#1a2233" stroke-width="1.5"/>
<path d="M240,143 L245,137 L250,143" fill="none" stroke="#1a2233" stroke-width="1.5" stroke-linejoin="round" stroke-linecap="round"/>
<text x="245" y="152" font-size="8" text-anchor="middle" fill="#5b6577">load check</text>
<path d="M214,168 L224,158 L224,178 Z" fill="#fee2e2" stroke="#b91c1c" stroke-width="1.5" stroke-linejoin="round" stroke-linecap="round"/>
<text x="219" y="188" font-size="7.5" text-anchor="middle" fill="#b91c1c">port</text>
<text x="219" y="197" font-size="7.5" text-anchor="middle" fill="#b91c1c">reliefs</text>
<path d="M276,168 L266,158 L266,178 Z" fill="#dcfce7" stroke="#166534" stroke-width="1.5" stroke-linejoin="round" stroke-linecap="round"/>
<text x="271" y="188" font-size="7.5" text-anchor="middle" fill="#166534">anti-cav</text>
<text x="271" y="197" font-size="7.5" text-anchor="middle" fill="#166534">checks</text>
<line x1="230" y1="60" x2="230" y2="70" stroke="#1a2233" stroke-width="1.5" stroke-linecap="round"/>
<line x1="260" y1="60" x2="260" y2="70" stroke="#1a2233" stroke-width="1.5" stroke-linecap="round"/>
<text x="230" y="56" font-size="8.5" text-anchor="middle" fill="#1a2233">A</text>
<text x="260" y="56" font-size="8.5" text-anchor="middle" fill="#1a2233">B</text>
<circle cx="245" cy="66" r="3" fill="#ffffff" stroke="#0b5fa5" stroke-width="1"/>
<rect x="300" y="70" width="90" height="110" fill="#f1f5f9" stroke="#1a2233" stroke-width="1.5" rx="3"/>
<text x="345" y="86" font-size="9.5" text-anchor="middle" font-weight="600" fill="#1a2233">section 3</text>
<rect x="310" y="96" width="70" height="12" fill="#cbd5e1" stroke="#1a2233" stroke-width="1.5"/>
<rect x="317" y="96" width="10" height="12" fill="#64748b" stroke="#1a2233" stroke-width="1.5"/>
<rect x="340" y="96" width="10" height="12" fill="#64748b" stroke="#1a2233" stroke-width="1.5"/>
<rect x="363" y="96" width="10" height="12" fill="#64748b" stroke="#1a2233" stroke-width="1.5"/>
<line x1="380" y1="102" x2="396" y2="102" stroke="#1a2233" stroke-width="2" stroke-linecap="round"/>
<text x="345" y="122" font-size="8.5" text-anchor="middle" fill="#5b6577">spool</text>
<circle cx="345" cy="138" r="3.5" fill="#ffffff" stroke="#1a2233" stroke-width="1.5"/>
<path d="M340,143 L345,137 L350,143" fill="none" stroke="#1a2233" stroke-width="1.5" stroke-linejoin="round" stroke-linecap="round"/>
<text x="345" y="152" font-size="8" text-anchor="middle" fill="#5b6577">load check</text>
<path d="M314,168 L324,158 L324,178 Z" fill="#fee2e2" stroke="#b91c1c" stroke-width="1.5" stroke-linejoin="round" stroke-linecap="round"/>
<text x="319" y="188" font-size="7.5" text-anchor="middle" fill="#b91c1c">port</text>
<text x="319" y="197" font-size="7.5" text-anchor="middle" fill="#b91c1c">reliefs</text>
<path d="M376,168 L366,158 L366,178 Z" fill="#dcfce7" stroke="#166534" stroke-width="1.5" stroke-linejoin="round" stroke-linecap="round"/>
<text x="371" y="188" font-size="7.5" text-anchor="middle" fill="#166534">anti-cav</text>
<text x="371" y="197" font-size="7.5" text-anchor="middle" fill="#166534">checks</text>
<line x1="330" y1="60" x2="330" y2="70" stroke="#1a2233" stroke-width="1.5" stroke-linecap="round"/>
<line x1="360" y1="60" x2="360" y2="70" stroke="#1a2233" stroke-width="1.5" stroke-linecap="round"/>
<text x="330" y="56" font-size="8.5" text-anchor="middle" fill="#1a2233">A</text>
<text x="360" y="56" font-size="8.5" text-anchor="middle" fill="#1a2233">B</text>
<circle cx="345" cy="66" r="3" fill="#ffffff" stroke="#0b5fa5" stroke-width="1"/>
<rect x="400" y="70" width="60" height="110" fill="#cbd5e1" stroke="#1a2233" stroke-width="1.5" rx="3"/>
<text x="430" y="96" font-size="10" text-anchor="middle" font-weight="600" fill="#1a2233">outlet</text>
<text x="430" y="130" font-size="10" text-anchor="middle" fill="#1a2233">T</text>
<text x="430" y="150" font-size="8.5" text-anchor="middle" fill="#1a2233">power</text>
<text x="430" y="160" font-size="8.5" text-anchor="middle" fill="#1a2233">beyond</text>
<line x1="60" y1="40" x2="445" y2="40" stroke="#0b5fa5" stroke-width="1.2" stroke-dasharray="4 3" stroke-linecap="round"/>
<line x1="145" y1="40" x2="145" y2="63" stroke="#0b5fa5" stroke-width="1" stroke-dasharray="3 2" stroke-linecap="round"/>
<line x1="245" y1="40" x2="245" y2="63" stroke="#0b5fa5" stroke-width="1" stroke-dasharray="3 2" stroke-linecap="round"/>
<line x1="345" y1="40" x2="345" y2="63" stroke="#0b5fa5" stroke-width="1" stroke-dasharray="3 2" stroke-linecap="round"/>
<text x="250" y="34" font-size="9" text-anchor="middle" fill="#0b5fa5">LS gallery: shuttles pass the highest of A/B in each section</text>
<line x1="22" y1="80" x2="468" y2="80" stroke="#b45309" stroke-width="2.5" stroke-linecap="round" opacity="0.5"/>
<line x1="22" y1="190" x2="468" y2="190" stroke="#b45309" stroke-width="2.5" stroke-linecap="round" opacity="0.5"/>
<text x="250" y="216" font-size="9.2" text-anchor="middle" fill="#b45309">tie rods: torque in stages, cross pattern, valve on a flat surface</text>
<line x1="60" y1="190" x2="60" y2="205" stroke="#1a2233" stroke-width="2" stroke-linecap="round"/>
<text x="60" y="216" font-size="9" text-anchor="middle" fill="#1a2233">P</text>
<text x="250" y="232" font-size="12" text-anchor="middle" fill="#5b6577" font-style="italic">Port relief below the main relief: weak in one direction only.</text>
</svg>